<svg id="Ebene_1" data-name="Ebene 1" xmlns="http://www.w3.org/2000/svg" viewBox="0 0 310 310"><defs><style type="text/css">.st0{fill:#FF6601;}.st1{fill:#FFFFFF;}</style></defs><title>TYPO3 Gone</title><rect class="st0" width="310" height="310"/><g><path class="st1" d="M55.8,155.1c0-38.4,0-76.8,0-115.2c0-6.6,3.2-9.8,9.9-9.8c47.4,0,94.8,0,142.2,0c3.3,0,5.9,1,8.2,3.3c11.5,11.4,23.1,22.8,34.7,34.1c2.5,2.4,3.6,5.2,3.6,8.7c0,64.3,0,128.7,0,193c0,8-2.9,10.9-10.9,10.9c-59.1,0-118.1,0-177.2,0c-7.3,0-10.4-3-10.4-10.2C55.8,231.6,55.8,193.3,55.8,155.1C55.8,155.1,55.8,155.1,55.8,155.1z M73.1,47.3c0,71.9,0,143.7,0,215.5c54.7,0,109.2,0,164,0c0-1.3,0-2.4,0-3.5c0-15.6,0-31.3,0-46.9c0-43.1,0-86.1,0.1-129.2c0-2.7-0.6-3.7-3.5-3.6c-7.9,0.2-15.8,0.1-23.6,0.1c-4.3,0-6-1.8-6.1-6.1c0-7.7,0-15.4,0-23.1c0-1,0-2,0-3.1C160.1,47.3,116.6,47.3,73.1,47.3z"/><path class="st1" d="M214.9,164.2c0,7.1,0.1,14.3-0.1,21.4c-0.1,1.7-0.9,3.8-2.1,5.1c-10,10.2-20.2,20.2-30.2,30.3c-1.6,1.6-3.4,2.3-5.7,2.3c-14.1-0.1-28.2-0.1-42.3,0c-2.3,0-4.1-0.7-5.7-2.3c-10-10.1-20-20.1-30.1-30.1c-1.6-1.6-2.4-3.3-2.3-5.6c0.1-14.2,0.1-28.3,0-42.5c0-2.3,0.7-4,2.3-5.6c10.1-10,20.1-20,30.1-30.1c1.6-1.7,3.4-2.3,5.7-2.3c14.3,0,28.6,0,42.8,0.1c1.6,0,3.7,0.9,4.8,2.1c10.3,10.1,20.6,20.3,30.7,30.6c1.1,1.1,1.8,3,1.9,4.6C215,149.5,214.9,156.8,214.9,164.2z M155.6,152.3c-4.6-4.7-9-9.1-13.4-13.5c-1.4-1.5-2.5-1.5-4,0c-3,3.1-6,6.1-9.1,9c-1.6,1.5-1.3,2.6,0.1,3.9c1.8,1.7,3.6,3.5,5.3,5.3c2.7,2.7,5.3,5.3,8.2,8.1c-4.4,4.4-8.6,8.5-12.7,12.6c-2.6,2.6-2.6,2.8-0.1,5.3c2.6,2.6,5.2,5,7.6,7.7c1.8,2,3.1,2,5,0c4.1-4.4,8.5-8.6,12.9-13c4.5,4.5,8.9,8.8,13.1,13.2c1.7,1.8,3,2,4.8,0.1c2.2-2.5,4.7-4.7,7.1-7.1c3.5-3.5,3.5-3.5,0.1-6.8c-4-4-8-7.9-12.2-12.2c4.7-4.6,9-9,13.5-13.3c1.5-1.5,1.6-2.6,0-4.1c-2.9-2.7-5.7-5.6-8.4-8.5c-1.7-1.8-3-1.6-4.6,0.1C164.5,143.5,160.2,147.8,155.6,152.3z"/></g></svg>
